# xmcd
#
# Track frame offsets:
#	150
#	11867
#	32164
#	45304
#	54641
#	67867
#	83599
#	96113
#	108075
#	120994
#	133427
#	155902
#	167747
#	177880
#	193024
#	210370
#	224684
#	240207
#	255457
#	267544
#	280999
#	298580
#
# Disc length: 4184 seconds
#
# Revision: 0
# Processed by: cddbd v1.5.2PL0 Copyright (c) Steve Scherf et al.
# Submitted via: dBpowerAMP V4.0
#
DISCID=3c105616
DTITLE=Danny Palabay - Very Best Of Danny Palabay
DYEAR=1900
DGENRE=Blues
TTITLE0=Anak Ti Mannalon
TTITLE1=Ina La Ti Ina
TTITLE2=Ti Ama
TTITLE3=Ti Mangmangged
TTITLE4=Tinapay
TTITLE5=Nanangko
TTITLE6=Fiesta Ti Barrio
TTITLE7=Ti Asawa Nga Adda Bisiona
TTITLE8=Edilberta
TTITLE9=Biag Ti Away
TTITLE10=Maudi A Balikas
TTITLE11=Adda Balasang A Birbirokek
TTITLE12=Ni Danilo
TTITLE13=Sangsangitak Toy Gasat
TTITLE14=Ti Ama Ken Ina
TTITLE15=Pusok Agtalnaka
TTITLE16=Ti Agsiuman
TTITLE17=Ubbing Nasapa  A Naulila
TTITLE18=Ubing A Nasalun-at
TTITLE19=Ay Nanangko
TTITLE20=Nagulib Ken Naranggas
TTITLE21=Innem Kami Nga Agkakabsat
EXTD=
EXTT0=
EXTT1=
EXTT2=
EXTT3=
EXTT4=
EXTT5=
EXTT6=
EXTT7=
EXTT8=
EXTT9=
EXTT10=
EXTT11=
EXTT12=
EXTT13=
EXTT14=
EXTT15=
EXTT16=
EXTT17=
EXTT18=
EXTT19=
EXTT20=
EXTT21=
PLAYORDER=
